<?xml version="1.0" standalone="no"?>
<!DOCTYPE svg PUBLIC "-//W3C//DTD SVG 1.1//EN" "http://www.w3.org/Graphics/SVG/1.1/DTD/svg11.dtd" >
<svg xmlns="http://www.w3.org/2000/svg">
<metadata>Generated by IcoMoon</metadata>
<defs>
<font id="icomoon" horiz-adv-x="1024">
<font-face units-per-em="1024" ascent="960" descent="-64" />
<missing-glyph horiz-adv-x="1024" />
<glyph unicode="&#x20;" horiz-adv-x="512" d="" />
<glyph unicode="&#xe900;" glyph-name="alert-broken" d="M348.298 139.954c28.33 0 51.696 21.412 54.672 49h-109.392c2.976-27.588 26.33-49 54.72-49zM192.784 437.238c-48.382-56.982-75.026-129.614-75.026-204.512 0-74.9 26.646-147.516 75.030-204.47l33.534 28.488c-86.614 101.956-86.612 250 0.004 352.018l-33.542 28.476zM45.628 397.396c-59.206-95.41-59.206-233.9 0-329.294l37.384 23.204c-50.042 80.628-50.042 202.248 0 282.892l-37.384 23.198zM797.72 408.766c86.574-102.020 86.576-250.068 0.004-352.026l33.54-28.48c48.36 56.956 74.992 129.568 74.992 204.466 0 74.896-26.63 147.526-74.988 204.508l-33.548-28.468zM978.374 397.396l-37.386-23.2c50.042-80.644 50.042-202.264 0-282.892l37.386-23.204c59.204 95.396 59.204 233.886 0 329.296zM496.234 458.33l-143.902 138.544c-4.444-23.538-9.142-50.978-14.94-82.984-15.938-88.218-81.888-227.484-87.92-238.064-0.634-3.91-0.642-7.668-0.642-11.374 0-28.312 13.922-36.61 42.062-36.61h276.13l5.318 75.388-105.732 14.818 29.626 140.282zM686.61 513.892c-31.458 173.614-30.554 213.328-131.906 219.982v82.47h-85.406v-82.472c-65.674-4.312-88.412-22.524-104.842-82.040l184.244-177.382-24.5-116.002 99.174-13.9-8.23-116.706h117.968c28.14 0 42.062 8.296 42.062 36.61 0 3.708-0.008 7.464-0.64 11.376-6.038 10.578-71.986 149.844-87.924 238.064z" />
<glyph unicode="&#xe901;" glyph-name="alert" d="M293.578 188.954c2.976-27.588 26.332-49 54.72-49 28.33 0 51.696 21.412 54.672 49h-109.392zM192.788 28.256c-48.384 56.956-75.030 129.57-75.030 204.47 0 74.898 26.644 147.53 75.026 204.512l33.542-28.476c-86.616-102.018-86.618-250.062-0.004-352.018l-33.534-28.488zM45.628 68.102c-59.206 95.394-59.206 233.884 0 329.294l37.386-23.2c-50.042-80.644-50.042-202.264 0-282.892l-37.386-23.202zM831.262 28.26l-33.54 28.48c86.572 101.958 86.57 250.006-0.004 352.026l33.546 28.468c48.358-56.982 74.988-129.612 74.988-204.508 0.002-74.898-26.63-147.512-74.99-204.466zM978.374 68.102l-37.386 23.204c50.042 80.628 50.042 202.248 0 282.892l37.386 23.2c59.204-95.412 59.204-233.902 0-329.296zM554.704 816.344v-82.472c101.352-6.654 100.45-46.368 131.906-219.982 15.938-88.22 81.886-227.486 87.922-238.064 0.632-3.91 0.64-7.668 0.64-11.376 0-28.312-13.922-36.61-42.062-36.61h-442.218c-28.14 0-42.062 8.296-42.062 36.61 0 3.706 0.008 7.462 0.642 11.374 6.032 10.58 71.982 149.846 87.92 238.064 31.456 173.614 30.556 213.328 131.906 219.982v82.474h85.406z" />
<glyph unicode="&#xe902;" glyph-name="anwendungen" d="M512.044 158.902l-323.118 154.686-104.064-49.834 427.18-204.5 427.098 204.5-104.042 49.834zM939.14 618.302l-427.098 204.57-427.18-204.57 427.18-204.504zM512.044 335.358l-324.826 155.504-102.356-49.016 427.18-204.502 427.098 204.502-102.332 49.014z" />
<glyph unicode="&#xe903;" glyph-name="arrow-default-down" d="M115.134 802.896l396.906-758.33 396.828 758.408z" />
<glyph unicode="&#xe904;" glyph-name="arrow-default-left" d="M866.896 844.868l-758.33-396.908 758.41-396.828z" />
<glyph unicode="&#xe905;" glyph-name="arrow-default-right" d="M157.104 844.868l758.33-396.908-758.408-396.828z" />
<glyph unicode="&#xe906;" glyph-name="arrow-default-up" d="M908.868 93.104l-396.906 758.33-396.828-758.408z" />
<glyph unicode="&#xe907;" glyph-name="arrow-jumpmark" d="M115.148-40.13l396.846 758.264 396.86-758.406zM87.414 939.332h849.174v-113.334h-849.174v113.334z" />
<glyph unicode="&#xe908;" glyph-name="arrow-light-down" d="M522.578 181.532c0 0 440.704 446.454 440.594 447.218h-165.344l-285.452-289.266-285.5 289.266h-166.048l441.328-447.218c2.64-2.782 6.376-4.296 10.218-4.296s7.454 1.514 10.204 4.296z" />
<glyph unicode="&#xe909;" glyph-name="arrow-light-left" d="M245.532 437.422c0 0 446.454-440.704 447.218-440.594v165.344l-289.266 285.452 289.266 285.5v166.048l-447.218-441.328c-2.782-2.64-4.296-6.376-4.296-10.218s1.514-7.454 4.296-10.204z" />
<glyph unicode="&#xe90a;" glyph-name="arrow-light-right" d="M778.47 458.578c0 0-446.454 440.704-447.218 440.594v-165.344l289.266-285.454-289.266-285.5v-166.046l447.218 441.328c2.782 2.64 4.296 6.376 4.296 10.218s-1.516 7.454-4.296 10.204z" />
<glyph unicode="&#xe90b;" glyph-name="arrow-light-up" d="M501.422 714.468c0 0-440.704-446.454-440.594-447.218h165.344l285.454 289.266 285.5-289.266h166.046l-441.328 447.218c-2.64 2.782-6.376 4.296-10.218 4.296s-7.454-1.514-10.204-4.296z" />
<glyph unicode="&#xe90c;" glyph-name="arrow-small-down" d="M908.922 500.638l-396.906-402.124-396.938 402.202z" />
<glyph unicode="&#xe90d;" glyph-name="arrow-small-up-down" d="M908.922 380.636l-396.906-402.124-396.938 402.202zM115.078 515.362l396.906 402.124 396.938-402.202z" />
<glyph unicode="&#xe90e;" glyph-name="arrow-small-up" d="M115.078 395.362l396.906 402.124 396.938-402.202z" />
<glyph unicode="&#xe90f;" glyph-name="auftrag" d="M44.248 628.878h119.172v-386.062h-119.172v386.062zM933.834 578.424h-372.072v40h126.622c-35.442 32.124-89.652 73.828-132.262 73.828-69.25 0-265.234-109.312-265.234-109.312h-83.468v-286.046c19.782 0 45.318-0.076 54.172-0.076 41.674-49.322 91.662-101.174 196.624-101.174h150.656c34.844 0 55.094 14.296 55.094 42.11 0 9.596-0.366 13.47-1.692 18.452h-107.902v40h130.342c6.382 7.864 9.26 17.696 9.26 31.606 0 11.766-2.292 22.918-8.124 29.512h-131.478v40h150.438c7.608 8.586 10.25 21.14 10.25 32.652 0 10.246-1.826 20.586-8.536 28.466h-152.152v40l379.462-0.218c47.96 0 59.852 17.954 59.852 40.102s-11.89 40.098-59.852 40.098z" />
<glyph unicode="&#xe910;" glyph-name="bookmark-broken" d="M470.122 642.26l33.692-90.648 104.064 47.050 103.942-69.336v378.404h-399.64v-312.078zM603.39 543.954l-126.656-57.262-35.996 96.85-128.558-37.936v-593.63l200.14 269.75 199.5-269.75v519.65z" />
<glyph unicode="&#xe911;" glyph-name="bookmark" d="M711.82-48.024l-199.5 269.75-200.14-269.75v955.754h399.64z" />
<glyph unicode="&#xe912;" glyph-name="bullet" d="M943.024 448c0-237.992-193.010-430.984-431.024-430.984-238.012 0-430.976 192.992-430.976 430.984 0 238.040 192.964 431.016 430.976 431.016 238.014 0 431.024-192.978 431.024-431.016z" />
<glyph unicode="&#xe913;" glyph-name="calender" d="M845.668 817.718h-696.11c-12.15 0-22-9.85-22-22v-671.25c0-12.15 9.85-22 22-22h696.11c12.15 0 22 9.85 22 22v671.25c0 12.152-9.85 22-22 22zM475.622 624.996v-130.496h-130v130.496h130zM519.622 624.996h130v-130.496h-130v130.496zM301.62 624.996v-130.496h-130.062v130.496h130.062zM301.62 450.5v-130h-130.062v130h130.062zM345.62 450.5h130v-130h-130v130zM475.622 276.5v-130.032h-130v130.032h130zM519.622 276.5h130v-130.032h-130v130.032zM519.622 320.5v130h130v-130h-130zM693.622 450.5h130.046v-130h-130.046v130zM693.622 494.5v130.496h130.046v-130.496h-130.046zM171.558 276.5h130.062v-130.032h-130.062v130.032zM693.622 146.468v130.032h130.046v-130.032h-130.046z" />
<glyph unicode="&#xe914;" glyph-name="checkbox-blank" d="M100 860h824v-824h-824v824z" />
<glyph unicode="&#xe915;" glyph-name="checkbox-checked" d="M100 860v-824h824v824h-824zM484.25 110.792l-261.030 294.348 79.748 70.72 164.47-185.464 253.32 423.752 91.488-54.692-327.996-548.664z" />
<glyph unicode="&#xe916;" glyph-name="checkbox-disabled" d="M358.592 413.136h182.22l41.672 69.71h-482.484v-69.71h132.236l70.732 62.724zM924 413.136v69.71h-217.334l-41.672-69.71zM100 231.43v-69.708h339.084l-61.816 69.708zM924 161.722v69.708h-367.63l-41.672-69.708zM467.438 290.396l39.898 66.74h-99.084zM924 287.43v69.706h-292.482l-41.672-69.706zM100 357.136v-69.706h227.606l-61.816 69.706zM100 664.552h591.108l29.65 49.598 82.968-49.598h120.274v69.706h-824zM100 860h824v-69.742h-824v69.742zM924 538.844v69.708h-142.186l-41.67-69.708zM100 608.552v-69.708h515.96l41.672 69.708zM100 105.722h824v-69.722h-824v69.722z" />
<glyph unicode="&#xe917;" glyph-name="checkmark" d="M468.324 3.032l-380.024 428.528 116.102 102.96 239.446-270.008 368.802 616.926 133.192-79.624z" />
<glyph unicode="&#xe918;" glyph-name="close" d="M903.854 839.838h-82.682l-309.202-309.222-309.244 309.222h-82.588v-82.6l309.218-309.238-309.218-309.238v-82.598h82.588l309.242 309.214 309.204-309.214h82.682v82.598l-309.26 309.238 309.26 309.238z" />
<glyph unicode="&#xe919;" glyph-name="delete" d="M766.376 815.75h-135.204v27.922c0 15.032-12.172 27.156-27.078 27.156h-181.204c-14.89 0-27.124-12.124-27.124-27.156v-27.922h-138.046c-30.282 0-54.718-24.454-54.718-54.624v-19.546h618v19.546c-0.002 30.172-24.44 54.624-54.626 54.624zM768.79 689.2h-513.548v-599.918c-0.078-0.782-1.438-32.5 20.188-55.312 16-16.922 41.25-25.422 75.124-25.422h322.454c33.75 0 59.046 8.5 75.234 25.422 21.75 22.812 20.546 54.688 20.546 55.062v600.168zM400.022 102.172h-44v488.126h44v-488.126zM534 102.172h-44v488.126h44v-488.126zM667.978 102.172h-44v488.126h44v-488.126z" />
<glyph unicode="&#xe91a;" glyph-name="download" d="M686.496 563.054l-140.496-140.528v414.474h-68v-414.43l-140.498 140.488-47.656-47.66 222.19-222.174 222.124 222.178zM854.524 300.67v-167.66h-685.046v167.66h-70v-214.66c0-12.704 10.298-23 23-23h779.046c12.704 0 23 10.296 23 23v214.66h-70z" />
<glyph unicode="&#xe91b;" glyph-name="edit-file" d="M764.114 608.876l-225.062-268.116c12.738-7.918 22.312-19.85 27.636-34.7 14.684-2.446 27.478-9.104 37.334-19.216l293.748 349.884-64.762 54.224-68.894-82.076zM963.57 722.228c-1.618 7.856-6.752 17.156-23.38 31.056-16.63 13.904-26.696 17.308-34.714 17.504-4.242 0.106-7.574-2.352-11.536-7.092l-32.234-38.328 64.924-54.272 32.006 38.518c3.96 4.744 5.79 8.454 4.934 12.614zM509.15 305.234l-0.194-0.226c0 0-35.82-83.798-39.192-91.608-3.952-9.15-2.72-15.964 1.516-19.48s11.376-3.69 19.638 1.874c7.056 4.756 84.108 55.912 84.108 55.912-6.762 9.706-16.554 11.108-24.61 10.458l-21.848-1.774-2.288 21.8c-0.914 8.75-4.73 19.374-17.13 23.044zM595.73 212.36l-83.844-55.454c-1.516-1.004-3.090-1.91-4.714-2.714-9.652-4.79-19.524-7.218-29.344-7.218-17.492 0-33.39 7.812-43.618 21.43-10.934 14.562-13.944 34.14-8.258 53.722 0.508 1.75 1.124 3.464 1.846 5.14l39.782 92.328c1.694 3.934 3.954 7.598 6.708 10.878l289.828 345.284v183.44l0.004 0.004h-0.004v0.008l-320.806-0.008v-236.356c0-0.722-0.040-1.434-0.108-2.138-1.292-11.166-10.766-19.84-22.278-19.84l-236.17-0.022v-559.684l0.004 0.008h579.354v368.932l-158.958-189.334c-2.72-3.242-5.896-6.074-9.424-8.406zM399.31 857.918l-213.43-213.072h213.43z" />
<glyph unicode="&#xe91c;" glyph-name="ext-link" d="M799.046 159.904h-575.805v575.805h289.425v112.724h-402.149v-801.251h801.253v402.147h-112.724zM913.328 848.667l-292.317 0.152 109.545-109.543-335.102-335.1 73.39-73.386 335.092 335.104 109.548-109.548z" />
<glyph unicode="&#xe91d;" glyph-name="facebook" d="M568.445 683.577h118.094v146.084h-118.094c-90.608 0-164.321-88.404-164.321-186.552v-56.914h-107.127v-146.076h107.127v-331.125h136.344v331.125h146.072v146.076h-146.072v58.202c0 23.491 15.067 39.18 27.978 39.18z" />
<glyph unicode="&#xe91e;" glyph-name="file-abo" d="M587.128 857.918v-213.072h213.43zM508.186 417.502l-51.896-147.982h104.822l-51.896 147.982zM565.128 600.846c-12.152 0-22 9.85-22 22v236.356h-320.81v-818.040h579.364v559.684h-236.554zM611.98 130.786l-30.832 82.214h-145.412l-31.344-82.214h-74.504l139.762 358.654h81.186l140.79-358.654h-79.646z" />
<glyph unicode="&#xe91f;" glyph-name="file-access" d="M587.128 857.918v-213.072h213.43zM623.242 454.774c-15.718 0-28.184-12.704-28.184-28.286 0-15.62 12.464-28.322 28.184-28.252 15.55-0.070 28.234 12.632 28.234 28.252 0.002 15.582-12.738 28.286-28.234 28.286zM565.128 600.846c-12.152 0-22 9.85-22 22v236.356h-320.81v-818.040h579.364v559.684h-236.554zM586.348 277.262c-13.222 0-25.906 2.306-37.688 6.508l-25.188-25.192-35.84 6.29 6.362-35.77-18.104-18.106-35.734 6.286 6.262-35.758-18.052-18.056-35.848 6.29 6.316-35.822-11.512-11.514-57.486 2.042-13.914 62.792 164.7 164.714c-4.15 11.716-6.43 24.314-6.43 37.454 0 61.942 50.214 112.156 112.156 112.156 61.946 0 112.16-50.214 112.16-112.156 0-61.946-50.214-112.158-112.16-112.158z" />
<glyph unicode="&#xe920;" glyph-name="file-csv" d="M587.128 857.918v-213.072h213.43zM565.128 600.846c-12.152 0-22 9.85-22 22v236.356h-320.81v-818.040h579.364v559.684h-236.554zM367.692 175.924c-53.064 0-90.292 39.728-90.292 101.126 0 71.122 47.786 99.458 87.234 99.458 28.892 0 43.618-6.388 51.12-9.446l-2.222-37.784c-6.948 3.89-18.616 11.116-39.452 11.116-30.56 0-50.006-24.728-50.006-63.9 0-37.782 21.948-63.342 50.84-63.342 22.224 0 35.284 8.336 39.726 10.28l1.668-40.56c-7.778-2.502-23.892-6.948-48.616-6.948zM500.772 175.924c-23.616 0-43.894 5.556-52.228 8.056l2.5 37.786c13.612-5.28 25.558-11.948 42.506-11.948 14.446 0 28.336 7.222 28.336 23.058 0 37.506-76.398 19.17-76.398 88.346 0 5.836 2.222 55.286 67.23 55.286 17.782 0 28.894-3.056 45.564-6.666l-1.948-36.118c-10.834 5.556-26.116 10.002-38.34 10.002-14.722 0-25.834-6.668-25.834-21.116 0-35.282 76.398-18.89 76.398-87.79 0.002-36.668-29.17-58.896-67.786-58.896zM693.304 179.258h-48.894l-57.788 193.918h48.896l34.17-141.41h0.556l35.004 141.41h46.674l-58.618-193.918z" />
<glyph unicode="&#xe921;" glyph-name="file-document" d="M587.128 857.918v-213.072h213.43zM565.128 600.846c-12.152 0-22 9.85-22 22v236.356h-320.81v-818.040h579.364v559.684h-236.554zM320.322 632.808h126.64v-44h-126.64v44zM703.678 154.2h-383.356v44h383.356v-44zM703.678 299.068h-383.356v44h383.356v-44zM703.678 443.94h-383.356v44h383.356v-44z" />
<glyph unicode="&#xe922;" glyph-name="file-edit" d="M764.114 608.876l-225.062-268.116c12.738-7.918 22.312-19.85 27.636-34.7 14.684-2.446 27.478-9.104 37.334-19.216l293.748 349.884-64.762 54.224-68.894-82.076zM963.57 722.228c-1.618 7.856-6.752 17.156-23.38 31.056-16.63 13.904-26.696 17.308-34.714 17.504-4.242 0.106-7.574-2.352-11.536-7.092l-32.234-38.328 64.924-54.272 32.006 38.518c3.96 4.744 5.79 8.454 4.934 12.614zM509.15 305.234l-0.194-0.226c0 0-35.82-83.798-39.192-91.608-3.952-9.15-2.72-15.964 1.516-19.48s11.376-3.69 19.638 1.874c7.056 4.756 84.108 55.912 84.108 55.912-6.762 9.706-16.554 11.108-24.61 10.458l-21.848-1.774-2.288 21.8c-0.914 8.75-4.73 19.374-17.13 23.044zM595.73 212.36l-83.844-55.454c-1.516-1.004-3.090-1.91-4.714-2.714-9.652-4.79-19.524-7.218-29.344-7.218-17.492 0-33.39 7.812-43.618 21.43-10.934 14.562-13.944 34.14-8.258 53.722 0.508 1.75 1.124 3.464 1.846 5.14l39.782 92.328c1.694 3.934 3.954 7.598 6.708 10.878l289.828 345.284v183.44l0.004 0.004h-0.004v0.008l-320.806-0.008v-236.356c0-0.722-0.040-1.434-0.108-2.138-1.292-11.166-10.766-19.84-22.278-19.84l-236.17-0.022v-559.684l0.004 0.008h579.354v368.932l-158.958-189.334c-2.72-3.242-5.896-6.074-9.424-8.406zM399.31 857.918l-213.43-213.072h213.43z" />
<glyph unicode="&#xe923;" glyph-name="file-excel" d="M587.128 857.918v-213.072h213.43zM565.128 600.846c-12.152 0-22 9.85-22 22v236.356h-320.81v-818.040h579.364v559.684h-236.554zM591.188 164.068l-88.406 115.334-58.65-75.968h-104.442l108.836 133.994-106.606 132.154h107.97l55.41-71.982 57.066 71.982h104.846l-107.422-129.632 139.558-175.88h-108.16z" />
<glyph unicode="&#xe924;" glyph-name="file-pdf" d="M587.128 857.918v-213.072h213.43zM486.45 500.368c2.528 19.716-2.306 26.964-3.848 28.716-1.26 1.432-2.6 2.042-4.48 2.042-8.836 0-11.972-15.786-11.972-29.302 0-13.668 3.162-28.006 9.434-42.872 6.348 19.944 9.962 34.368 10.866 41.416zM485.512 377.292l-0.804-2.184-0.366 0.526c-7.11-17.646-14.588-34.978-22.18-51.41l1.228 0.314-0.754-1.458c20.4 4.030 42.274 7.764 63.75 11.264l-0.29 0.21 2.302 0.356c-14.256 12.342-29.128 26.602-42.886 42.382zM681.958 306.412c-3.622 3.098-10.292 6.672-29.726 6.672-7.688 0-16.914-0.542-28.256-1.68 20.67-11.042 40.318-17.632 52.646-17.632 2.42 0 3.952 0.268 4.808 0.496 1.894 0.498 4.26 1.554 4.768 3.768 0.44 1.914-0.442 5.118-4.24 8.376zM330.47 209.836c0.096-0.090 0.756-0.414 2.202-0.414 1.874 0 7.126 0.614 15.466 6.294 11.716 8.026 25.742 24.876 40.81 48.802-16.208-6.792-31.014-15.102-41.046-23.234-18.3-14.838-19.648-27.594-17.432-31.448zM565.128 600.846c-12.152 0-22 9.85-22 22v236.356h-320.81v-818.040h579.364v559.684h-236.554zM721.984 289.812c-3.498-15.224-15.164-26.834-31.208-31.056-4.294-1.13-9.056-1.706-14.152-1.706-25.42 0-55.356 14.096-70.938 22.496-8.004 4.35-21.692 12.796-37.738 24.266-1.952-0.308-3.93-0.622-5.94-0.944-40.566-6.458-86.152-13.718-121.316-22.064-25.674-48.254-49.828-80.334-71.844-95.408-12.374-8.432-24.534-12.696-36.178-12.696-14.534 0-27.258 7.042-34.036 18.834-11.14 19.378-7.376 51.094 26.138 78.27 17.47 14.166 44.438 27.904 72.176 36.774 5.528 1.916 11.794 3.836 18.712 5.736 15.004 29.758 30.2 64.606 43.49 99.75-19.73 30.662-29.722 60.818-29.722 89.76 0 48.73 26.23 66.022 48.692 66.022 12.434 0 23.816-5.15 32.046-14.504 8-9.092 16.698-26.472 12.702-57.644-1.93-15.056-10.292-43.926-22.636-78.348 23.23-30.804 53.464-56.918 77.212-74.934 34.66 5.164 57.292 7.386 74.786 7.386 24.542 0 41.076-4.782 53.614-15.502 13.798-11.836 19.822-28.46 16.14-44.488z" />
<glyph unicode="&#xe925;" glyph-name="file-word" d="M587.128 857.918v-213.072h213.43zM565.128 600.846c-12.152 0-22 9.85-22 22v236.356h-320.81v-818.040h579.364v559.684h-236.554zM583.274 178.414h-78.008l-8.314 137.874-62.638-137.874h-80.56l-11.302 266.102h80.216l0.346-139.392 63.178 139.392h73.652l5.75-139.546 57.676 139.546h80.2l-120.196-266.102z" />
<glyph unicode="&#xe926;" glyph-name="file-zip" d="M586.008 859.218h-53.606v-46.39h75.418v-57.812h-75.418v-45.572h75.418v-57.732h-75.418v-102.62h47.68v-297.1h-140.24v297.1h47.68v50.944h-75.418v57.714h75.418v45.574h-75.418v57.812h75.418v45.572h-75.418v52.51h-189.786v-818.038h579.366v602.792zM479.85 337.020h60.224v-54.992h-60.224v54.992z" />
<glyph unicode="&#xe927;" glyph-name="folder-minus" d="M885.232 647.34h-411.81l-25.438 52.532c-9.674 20.242-19.924 26.164-37.846 26.164h-175.466c-17.578 0-31.612-8.234-38.344-23.812l-20.702-54.884h-36.766c-11.954 0-21.624-11.414-21.624-25.32v-485.946c0-14.060 9.672-25.438 21.624-25.438h746.376c11.844 0 21.534 11.376 21.534 25.438v485.946c-0.004 13.906-9.694 25.32-21.538 25.32zM680 329.302h-336v68h336v-68z" />
<glyph unicode="&#xe928;" glyph-name="folder-plus" d="M885.232 647.34h-411.81l-25.438 52.532c-9.674 20.242-19.924 26.164-37.846 26.164h-175.466c-17.578 0-31.612-8.234-38.344-23.812l-20.702-54.884h-36.766c-11.954 0-21.624-11.414-21.624-25.32v-485.946c0-14.060 9.672-25.438 21.624-25.438h746.376c11.844 0 21.534 11.376 21.534 25.438v485.946c-0.004 13.906-9.694 25.32-21.538 25.32zM680 329.802h-134v-118.5h-68v118.5h-134v67h134v118.5h68v-118.5h134v-67z" />
<glyph unicode="&#xe929;" glyph-name="glassdoor" d="M466 802.6c-9.4 1.2-18.6-0.2-26.4-3.6-8.4-3.4-15.8-8.8-21.8-15.6-6.4-7.2-11.2-15.6-14.6-25.4-2.8-9.8-2.6-20.8-2-32.4v-594l249.8 90.6c6.8 2 12.8 6 18.6 11.2 5.4 5 10.2 11.2 14.4 17.8 3.8 6.8 7.6 14.4 9.6 22.2s0 16 0 24.2v441.2l92.4-5.4v-489.2c0-9.4-2.2-18.8-4.8-28-2.4-9-6.4-17.8-10.6-25.6-4.6-7.8-9.8-15.2-16-21.2-6-6-12.8-10.6-19.8-13.4l-388.6-161.4c-12.6-5.2-24.6-7.6-35.8-7.6-11.8 0-22.4 2.6-32 7.4-9.6 5.2-17.8 12.4-23.2 21.6-6.2 9.6-12.2 21-13.2 34.2v755.4c-1.2 16.4 0.8 31.8 5.6 45.4 4.6 13.4 12.2 25.4 21.2 34.4 9.4 9.2 20.4 16 33.2 19.8 12.4 3.8 25.8 4.6 40.4 2.2l444.8-82.6-0.4-58.2-320.8 36z" />
<glyph unicode="&#xe92a;" glyph-name="home" d="M168.714 348.234v-300.858h688.596v301.234l-344.048 299.39zM513.262 848.83l-159.298-138.61v138.61h-95.656v-221.842l-161.906-140.878v-119.704l416.954 362.658 416.25-362.188v119.75z" />
<glyph unicode="&#xe92b;" glyph-name="info" d="M512.008 865.454c-257.484 0-466.078-186.906-466.078-417.408 0-94.622 35.148-181.874 94.37-251.886l-51.666-187.082 216.352 64.856c62.368-27.734 132.646-43.356 207.022-43.356 257.454 0 466.048 186.89 466.048 417.468 0 230.5-208.594 417.408-466.048 417.408zM593.556 271.032c-46.422-65.954-147.704-107.188-196.218-91.188-46.984 15.5-17.36 81.5-17.36 81.5l76.922 175.156c0 0 21.078 40.328 11.624 46.578-11.624 7.75-56.062-31.984-74.546-46.578-24.5-19.468-32.828-9.672-32.828-9.672-9.876 7.766 5.734 27.17 5.734 27.17 46.422 65.922 147.624 107.204 196.078 91.172 46.968-15.468 17.296-81.516 17.296-81.516l-76.798-175.124c0 0-21.078-40.25-11.624-46.61 11.624-7.718 56.064 32.032 74.47 46.61 24.5 19.376 32.844 9.718 32.844 9.718 9.858-7.78-5.594-27.216-5.594-27.216zM574.306 593.578c-33.75 0-60.906 27.296-60.906 60.89 0 33.61 27.156 60.906 60.906 60.906 33.594 0 60.828-27.296 60.828-60.906 0-33.592-27.236-60.89-60.828-60.89z" />
<glyph unicode="&#xe92c;" glyph-name="instagram" d="M215.2 850h597.4c56.8 0 103.2-42 103.2-103.2v-597.4c0-61.2-46.4-103.2-103.2-103.2h-597.4c-56.8 0-103.2 42-103.2 103.2v597.4c0 61.2 46.4 103.2 103.2 103.2v0zM697.6 760.6c-20 0-36.2-16.2-36.2-36.2v-86.6c0-20 16.2-36.2 36.2-36.2h90.8c19.8 0 36.2 16.2 36.2 36.2v86.6c0 20-16.2 36.2-36.2 36.2h-90.8zM825 510h-70.8c6.6-21.8 10.4-45 10.4-69 0-133.8-111.8-242.2-249.8-242.2s-249.8 108.4-249.8 242.2c0 24 3.6 47.2 10.4 69h-73.8v-339.6c0-17.6 14.4-32 32-32h559.8c17.6 0 32 14.4 32 32v339.6zM514.6 606.2c-89.2 0-161.4-70-161.4-156.4s72.4-156.4 161.4-156.4c89.2 0 161.4 70 161.4 156.4s-72.2 156.4-161.4 156.4v0z" />
<glyph unicode="&#xe92d;" glyph-name="kununu" d="M817.748 702.515c-6.167 6.156-12.222 6.222-18.412 0.156-9.972-9.718-19.902-19.448-29.854-29.153-6.121-5.945-14.316-5.9-20.507 0-1.202 1.157-2.359 2.337-3.561 3.506-7.102 6.957-7.080 14.426 0.068 21.418 10.019 9.775 20.058 19.536 30.081 29.366 4.581 4.52 4.669 10.764 0.307 15.485-1.27 1.37-2.603 2.65-3.981 3.93-4.854 4.585-11.225 4.731-16.056 0.055-10.996-10.596-22.104-21.127-32.725-32.092-14.963-15.43-14.983-39.34-0.422-55.091 2.47-2.66 5.097-5.155 7.77-7.602 8.032-7.315 17.584-10.742 26.671-10.955 11.532 0.012 21.635 3.172 28.738 9.785 11.932 11.063 23.489 22.508 35.041 33.962 4.008 3.985 3.74 9.853-0.047 14.080-0.973 1.092-2.044 2.103-3.111 3.15zM620.286 380.596c-4.942 6.525-10.33 12.757-15.567 19.192 0.027 0.066 0.043 0.293 0.156 0.424 3.009 3.584 6.144 7.143 9.066 10.82 35.779 45.095 54.702 96.291 55.636 153.965 0.242 14.492 0.061 29.008 0.061 43.524 0 0.68 0.068 1.393-0.111 2.038-2.986 11.733-11.198 18.067-23.423 18.067-37.358 0.010-74.699 0.010-112.032 0-5.767 0-11.557 0.111-17.336-0.033-9.988-0.256-19.382-8.307-20.13-17.701-1.202-14.449-2.449-28.91-2.806-43.403-0.868-34.052-21.639-64.018-53.422-76.587-11.497-4.532-23.464-6.136-35.598-6.48-13.048-0.356-26.081-0.068-39.117-0.078-21.641-0.023-43.037-2.327-64.031-7.547-7.87-1.935-15.641-4.284-23.845-6.578 0 1.503 0 2.771 0 4.041 0 121.827 0 243.632 0 365.447 0 14.017-8.983 23.022-22.931 23.032-42.535 0-85.070 0-127.605 0-13.871 0-22.899-8.94-22.899-22.721 0-261.485 0-522.963 0-784.447 0-13.804 9.005-22.798 22.831-22.798 42.533 0 85.068 0 127.592 0 13.992 0 23.009 9.019 23.009 22.977 0 48.003-0.045 96.047 0.033 144.048 0.023 10.639 0.434 21.26 0.891 31.879 0.201 4.385 0.713 8.794 1.546 13.093 6.889 36.108 38.060 64.651 76.308 67.211 18.547 1.27 37.224 0.58 55.837 0.424 5.634-0.068 11.356-0.893 16.865-2.073 38.306-8.237 65.677-41.632 66.257-80.728 0.299-19.257 0.477-38.584 0.512-57.84 0.078-38.918 0-77.812 0.043-116.728 0-12.737 9.239-22.221 21.645-22.221 43.414-0.066 86.85-0.066 130.263 0 11.93 0 21.33 9.241 21.479 21.172 0.715 58.311 1.538 116.619 1.931 174.903 0.070 12.401-0.887 24.916-2.693 37.179-6.185 42.303-22.594 80.464-48.419 114.526zM840.059 809.552c6.726-6.556 12.337-6.535 19.063 0.023 9.818 9.585 19.591 19.192 29.454 28.709 6.144 5.943 14.318 5.911 20.505 0.043 1.202-1.135 2.382-2.327 3.586-3.484 7.078-6.98 7.037-14.481-0.090-21.473-9.951-9.718-19.948-19.403-29.878-29.143-4.985-4.889-4.985-11.133-0.156-16.12 1.157-1.18 2.359-2.37 3.561-3.506 4.876-4.553 11.307-4.663 16.097-0.066 10.842 10.473 21.707 20.961 32.348 31.635 7.682 7.67 11.426 17.162 11.557 28.041 0.066 7.961-1.851 15.475-6.502 21.875-3.406 4.62-7.395 8.882-11.622 12.812-16.318 15.317-41.832 15.217-58.069-0.233-10.842-10.34-21.484-20.916-32.127-31.447-4.585-4.542-4.608-10.488-0.244-15.194 0.803-0.856 1.669-1.669 2.517-2.472zM934.638 715.414c-10.844 10.897-21.889 21.606-32.95 32.315-4.409 4.286-10.447 4.286-15.184 0.279-1.114-0.948-2.138-2.015-3.189-3.039-6.119-6.023-6.167-11.801-0.063-17.756 9.97-9.708 19.923-19.425 29.852-29.166 6.214-6.124 6.171-14.082-0.043-20.261-0.983-0.969-1.962-1.927-2.945-2.884-7.811-7.592-15.137-7.58-22.997 0.1-9.841 9.562-19.636 19.169-29.477 28.731-4.903 4.764-11.244 4.807-16.298 0.188-1.317-1.169-2.56-2.427-3.789-3.697-4.628-4.798-4.676-10.92 0.117-15.651 10.752-10.576 21.461-21.219 32.438-31.56 8.765-8.272 19.481-12.089 31.48-11.11 19.788 1.604 32.373 13.57 40.989 30.235 2.359 4.542 2.738 10.086 4.053 15.188-0.244 0.055-0.485 0.135-0.731 0.178 0.002 10.275-3.916 20.527-11.262 27.908zM787.599 859.439c-7.037 6.679-15.716 9.908-25.401 10.965-22.798 2.46-43.235-18.256-47.956-33.018-1.292-4.053-1.804-8.372-2.251-10.553 0.246-12.945 3.83-22.52 11.483-30.212 10.801-10.82 21.801-21.416 32.801-32.047 4.608-4.442 10.842-4.342 15.579 0.033 1.001 0.924 1.958 1.915 2.916 2.894 5.994 5.988 5.966 11.655-0.061 17.543-10.025 9.771-20.107 19.526-30.061 29.354-5.874 5.763-5.874 13.748-0.152 19.614 1.225 1.268 2.494 2.482 3.762 3.717 7.231 7.047 14.94 7.025 22.196-0.055 9.931-9.73 19.864-19.493 29.813-29.211 4.835-4.698 11.332-4.733 16.321-0.168 1.317 1.169 2.56 2.425 3.789 3.695 4.542 4.663 4.653 10.91 0.063 15.446-10.869 10.742-21.754 21.496-32.842 32.004z" />
<glyph unicode="&#xe92e;" glyph-name="linkedin" d="M216.746 520.421h138.721v-414.577h-138.721v414.577zM287.009 720.284c-47.448 0-78.494-30.935-78.494-71.576 0-39.842 30.167-71.666 76.671-71.666h0.944c48.335 0 78.426 31.824 78.428 71.666-0.922 40.641-30.091 71.576-77.55 71.576zM695.865 530.164c-73.673 0-106.574-40.276-124.975-68.522v58.769h-138.686c1.823-38.881 0-414.566 0-414.566h138.686v231.559c0 12.368 0.911 24.736 4.612 33.579 9.998 24.781 32.782 50.436 71.137 50.436 50.16 0 70.271-38.023 70.271-93.772v-221.805h138.689v237.72c-0.002 127.392-68.452 186.601-159.734 186.601z" />
<glyph unicode="&#xe92f;" glyph-name="mail" d="M918.6 827.2h-808l404-344.2zM531 430.2c-4.8-4-10.6-6-16.4-6s-11.8 2-16.4 6l-429.4 365.8v-555h891.2v554.8l-429-365.6z" />
<glyph unicode="&#xe930;" glyph-name="maximize" d="M95.232 409.217h384.129v-384.129h-384.129v384.129zM941.056 25.088h-384.129v36.936h347.193v771.953h-771.953v-347.193h-36.936v384.129h845.824zM542.863 581.636l109.052-109.052 109.052 109.052 72.702-72.702v254.456h-254.456l72.702-72.702z" />
<glyph unicode="&#xe931;" glyph-name="media" d="M477.502 167.592l106.36 104.956-106.328 104.952zM620.264 707.798l-156.424 69.216-87.082-19.272 156.442-69.212zM436.902 667.218l-156.442 69.212-84.428-18.686 156.38-69.226zM830.38 519.672h-99.446l-0.080 0.11 100.21 72.546h-87.236l-99.998-72.658-99.326 0.082 99.888 72.576h-86.292l-100.39-72.658h-99.456l-0.082 0.112 100.236 72.544h-87.624l-99.774-72.658-99.206 0.062 99.688 72.594h-103.434v15.388l89.32 19.768-157.626 68.952-23.144-5.122 21.922-98.984v-547.754h825.994v543.254l-94.144-68.154zM510.33 114.952c-89.516 0-162.032 72.516-162.032 162.034 0 89.5 72.516 162.094 162.032 162.094 89.53 0 162.060-72.594 162.060-162.094 0.002-89.518-72.53-162.034-162.060-162.034zM873.49 867.674l-132.656-29.358 154.26-68.26zM800.966 747.79l-156.418 69.216-84.418-18.682 156.424-69.216z" />
<glyph unicode="&#xe932;" glyph-name="menu" d="M22.528 777.66h976.896v-96.915h-976.896v96.915zM22.528 498.549h976.896v-96.915h-976.896v96.915zM22.528 219.347h976.896v-96.915h-976.896v96.915z" />
<glyph unicode="&#xe933;" glyph-name="minus" d="M95.978 506.88h832.046v-117.76h-832.046v117.76z" />
<glyph unicode="&#xe934;" glyph-name="news" d="M2 822v-733.89h1020v733.89h-1020zM598.070 220.156h-497.374v304.39h497.376v-304.39zM923.306 220.25h-253.736v44h253.734v-44zM923.306 306.5h-253.736v44h253.734v-44zM923.306 392.86h-253.736v44h253.734v-44zM923.306 479.156h-253.736v44h253.734v-44zM923.306 580.664h-822.61v121.674h822.61v-121.674z" />
<glyph unicode="&#xe935;" glyph-name="newsletter" d="M808.922 826.33h-699.212l349.644-297.88zM784.896 505.626c21.374 0 41.314-1.238 59.906-3.684v297.156l-371.18-316.294c-4.11-3.502-9.19-5.254-14.268-5.254s-10.156 1.75-14.268 5.254l-371.542 316.536v-480.216h435.95c14.436 35.284 35.42 67.97 62.020 95.686 56.208 58.562 131.988 90.816 213.382 90.816zM875.6 77.546c68.188 0 128.328 63.75 128.328 172.468 0 121.096-84.062 209.518-210.234 209.518-160.904 0-264.542-128.984-264.542-278.362 0-139.156 100.764-226.188 219.606-226.188 48.624 0 89.188 8.032 129.032 29l-11.61 31.218c-28.938-16.672-67.36-25.406-109.422-25.406-107.28 0-186.294 74.672-186.294 195 0 147.876 99.296 241.376 217.482 241.376 112.344 0 175.406-75.328 175.406-181.268 0-83.296-41.344-133.296-78.25-131.86-23.968 0.718-32 26.124-21.124 81.156l23.968 131.22c-18.124 8.718-46.39 15.218-77.532 15.218-100.78 0-171.81-81.892-171.81-171.784 0-57.25 36.296-91.312 78.248-91.312 43.516 0 76.844 21.032 102.968 63.75h2.124c-1.438-44.932 24.688-63.744 53.656-63.744zM734.304 116.67c-31.92 0-47.858 22.5-47.858 55.094 0 70.296 51.436 130.468 115.982 130.468 16.704 0 28.954-2.906 36.25-5.828l-15.25-81.156c-7.968-44.952-47.11-98.578-89.124-98.578z" />
<glyph unicode="&#xe936;" glyph-name="plus" d="M928.024 506.88h-357.142v331.768h-117.762v-331.768h-357.142v-117.76h357.142v-331.768h117.762v331.768h357.142z" />
<glyph unicode="&#xe937;" glyph-name="print" d="M769.020 540.542v277.218c0 12.162-9.858 22.020-22.020 22.020h-470c-12.162 0-22.020-9.858-22.020-22.020v-277.218h-164.98v-430h844v430h-164.98zM299.020 795.74h425.96v-467.96h-425.96v467.96z" />
<glyph unicode="&#xe938;" glyph-name="profile" d="M736.316 367.668c0 0-103.516 21.296-222.188 21.296-118.734 0-213.36-15.688-213.36-15.688-149.326-27.124-212.044-91.484-212.044-214.484v-159.25h174.594v141.782h44v-141.782h410.984v141.782h44v-141.782h174.704v159.25c-0.002 123-55.626 172.61-200.69 208.876zM512.896 445.792c98.234 0 177.922 92.236 177.922 206.11 0 113.766-54.344 206.062-177.922 206.062-123.672 0-178-92.296-178-206.062 0-113.874 79.78-206.11 178-206.11z" />
<glyph unicode="&#xe939;" glyph-name="question" d="M950.978 308.218v310.844c0 124.656-101 225.656-225.61 225.656h-426.688c-124.61 0-225.656-101-225.656-225.656v-310.844c0-124.594 101.046-225.656 225.656-225.656h340.748l254.642-100.546-20.208 156.336c47.262 41.366 77.116 102.136 77.116 169.866zM560.648 193.468h-114.046v114.046h114.046v-114.046zM608.242 476c-29.624-32.312-57.624-62.704-53.812-104.312l0.89-9.624h-103.25v8.876c0 66.312 25.234 104.312 52.532 135.328 3.954 4.406 7.922 8.624 11.766 12.672 20.656 22 37 39.438 37 66.282 0 50.078-53.89 53.954-70.422 53.954-30.078 0-62.624-8.532-102.468-26.828l-11.204-5.094-9.532 96 6.984 2.046c52.376 15.578 97.844 23.016 138.968 23.016 76.546 0 165.922-34.562 165.922-132.016 0.002-51.332-32.186-86.41-63.374-120.3z" />
<glyph unicode="&#xe93a;" glyph-name="quickcode" d="M755.662 100.468l-17.426-3.788c-20.526-4.462-39.566-6.724-56.596-6.724-13.916 0-33.234 4.824-46.16 43.726 38.782 26.894 68.534 66.806 88.546 118.842 21.304 55.39 32.108 126.194 32.108 210.446 0 116.556-20.926 207.168-62.198 269.324-42.81 64.474-105.668 97.166-186.83 97.166-81.186 0-143.974-32.788-186.622-97.452-41.092-62.302-61.928-152.82-61.928-269.040 0-116.24 20.926-206.694 62.196-268.848 42.812-64.474 105.51-97.166 186.354-97.166 5.656 0 11.858 0.402 18.742 1.22 11.412-34.042 28.346-60.668 50.456-79.286 25.798-21.726 58.68-32.742 97.728-32.742 28.624 0 57.93 4.592 87.102 13.644l15.732 4.882-21.204 95.796zM507.108 725.178c42.67 0 73.898-19.792 95.464-60.506 23.232-43.86 35.012-111.72 35.012-201.702 0-89.82-11.778-157.558-35.006-201.334-21.564-40.642-52.792-60.398-95.47-60.398-41.686 0-72.59 20.278-94.482 61.992-23.568 44.892-35.518 112.096-35.518 199.74 0 86.708 12.038 153.766 35.78 199.31 22.068 42.324 52.886 62.898 94.22 62.898z" />
<glyph unicode="&#xe93b;" glyph-name="recommend-1" d="M294.678 491.862v-106.878c63.63 55.648 170.166 101.042 284.104 101.042h44.586v-153.454l396.236 234.85-396.236 240.288v-160.594c-161.806-8.892-283.468-82.606-328.69-155.254zM837.854 167.006h-645.352v434.438h150.584c16.126 11.228 33.63 21.696 52.276 31.174 8.91 4.53 18.048 8.79 27.356 12.826h-252.216c-12.15 0-22-9.85-22-22v-478.438c0-12.15 9.85-22 22-22h689.352c12.15 0 22 9.85 22 22v289.622l-44-26.078v-241.544z" />
<glyph unicode="&#xe93c;" glyph-name="recommend-2" d="M694.958 401.206c-4.112-3.502-9.192-5.254-14.27-5.254s-10.156 1.752-14.268 5.254l-262.638 223.784v-336.538h256.238v-201.836h-483.524v715.55h483.524v-149.636h-220.714l241.382-205.674 241.368 205.674h-219.224v171.044c0 11.824-9.584 21.408-21.406 21.408h-526.336c-11.822 0-21.408-9.584-21.408-21.408v-758.364c0-11.822 9.584-21.406 21.408-21.406h526.336c11.822 0 21.406 9.584 21.406 21.406v223.242h254.7v336.5l-262.574-223.746z" />
<glyph unicode="&#xe93d;" glyph-name="retweet" d="M284.2 301v239h92.4l-160.2 182.4-160.4-182.4h92.4v-275.6c0-50.6 41-91.6 91.6-91.6h411.4l-117.2 128.2h-250zM879.6 355v275.6c0 50.6-41 91.6-91.6 91.6h-411.4l117.2-128.2h250v-239h-92.4l160.4-182.4 160.4 182.4h-92.6z" />
<glyph unicode="&#xe93e;" glyph-name="save" d="M320.624 797.142h382.75v-232.046h-382.75v232.046zM402.554 308.548h65.954v-142.11h-65.954v142.11zM837.734 797.142h-90.36v-233.828c0-23.28-18.954-42.218-42.25-42.218h-386.25c-23.296 0-42.25 18.94-42.25 42.218v233.828h-90.296c-15.156 0-27.454-12.282-27.454-27.468 0 0 0-486.328 0-498.438 0-12.094 3.406-21.672 9.156-28.718 27-33.296 105.14-129.406 115.296-140.172 7.704-8.172 16.454-11.454 31-11.454 10.344 0 523.408 0 523.408 0 15.046 0 27.39 12.328 27.39 27.422v651.36c0.002 15.188-12.342 27.468-27.39 27.468zM662.898 129.486h-301.796v216.032h301.798v-216.032z" />
<glyph unicode="&#xe93f;" glyph-name="search" d="M952 103.438l-303.234 303.266-15.62-15.624-41.2 41.158c83.058 114.868 72.918 276.726-30.462 380.156-55.562 55.52-129.412 86.096-207.942 86.096-78.528 0-152.36-30.58-207.886-86.096-55.564-55.524-86.166-129.374-86.166-207.95 0-78.554 30.58-152.404 86.108-207.95 55.508-55.524 129.342-86.102 207.904-86.102 62.726 0 122.44 19.506 172.248 55.616l41.194-41.154-15.644-15.65 303.25-303.25c10.922-10.876 28.75-10.922 39.704 0l57.688 57.782c11.058 11.014 11.058 28.764 0.058 39.702zM189.748 440.63c-43.742 43.754-67.83 101.93-67.83 163.812 0 61.89 24.102 120.060 67.872 163.796 43.744 43.736 101.898 67.822 163.754 67.822 61.866 0 120.042-24.088 163.804-67.816 90.302-90.344 90.306-237.312 0.012-327.606-43.762-43.736-101.954-67.822-163.856-67.822-61.886 0.002-120.042 24.086-163.756 67.814z" />
<glyph unicode="&#xe940;" glyph-name="speaker" d="M807.836 748.67l-37.296-23.342c85.776-137.058 85.78-343.652 0.006-480.556l37.286-23.36c46.118 73.606 71.514 167.21 71.514 263.574-0.002 96.362-25.396 190.006-71.51 263.684zM901.352 898.922l-36.546-24.502c151.3-225.672 151.302-553.214 0.002-778.824l36.542-24.508c77.446 115.48 120.096 262.472 120.096 413.894s-42.65 298.43-120.094 413.94zM677.366 635.966c43.468-86.010 43.466-215.846-0.006-302.010l39.282-19.82c49.986 99.070 49.984 242.766-0.006 341.678l-39.27-19.848zM145.188 606.578h-96.844c-25.562 0-46.344-20.578-46.344-46.11v-138.39c0-25.532 20.782-46.124 46.344-46.124h96.844v230.624zM554.97 743.546c0 0-241.364-136.052-365.782-137.756v-230.126c124.416-1.706 365.782-137.664 365.782-137.664 30.312 0 45.406 10.14 45.406 39.64v426.11c0 29.546-15.094 39.796-45.406 39.796zM167.668 331.852h-53.674l51.944-209.352 85.406-0.25-41.468 203.938c-5.78 2.89-17.146 5.664-42.208 5.664z" />
<glyph unicode="&#xe941;" glyph-name="star" d="M511.946 890.476l122.094-310.594 333.108-20.046-257.656-212.11 83.86-323.046-281.406 179.546-281.25-179.546 83.796 323.046-257.64 212.11 333.094 20.046z" />
<glyph unicode="&#xe942;" glyph-name="stock-exchange-data" d="M327.912 358.48l94.69-141.76 92.578 185.118 100.898 75.668 94.466-118.034 168.166 344.926-55.606 27.11-125.334-257.072-70.848 88.528-160.538-120.396-51.484-102.942-77.436 115.928-120.062-120.142 43.758-43.73zM178.22 100.234v721.626h-43v-42.468h-45.032v-43h45.032v-183.408h-45.032v-43h45.032v-183.342h-45.032v-43h45.032v-183.408h-45.032v-43h45.032v-45.062h43v45.062h183.406v-45.062h43v45.062h183.436v-45.062h43v45.062h183.376v-45.062h43v45.062h42.5v43z" />
<glyph unicode="&#xe943;" glyph-name="stock-exchange-list" d="M49.746 804.628v-713.256h924.508v713.256h-924.508zM334.12 209.67h-199.758v52.316h199.756v-52.316zM334.12 343.226h-199.758v52.316h199.756v-52.316zM334.12 476.752h-199.758v52.318h199.756v-52.318zM440.876 209.67h-62.758v52.316h62.758v-52.316zM440.876 343.226h-62.758v52.316h62.758v-52.316zM440.876 476.752h-62.758v52.318h62.758v-52.318zM665.758 209.67h-180.882v52.316h180.882v-52.316zM665.758 343.226h-180.882v52.316h180.882v-52.316zM665.758 476.752h-180.882v52.318h180.882v-52.318zM889.638 209.67h-179.878v52.316h179.878v-52.316zM889.638 343.226h-179.878v52.316h179.878v-52.316zM889.638 476.752h-179.878v52.318h179.878v-52.318zM889.638 610.246h-755.276v52.318h755.274v-52.318z" />
<glyph unicode="&#xe944;" glyph-name="topics" d="M246.17 725.376c0-25.376-20.624-45.968-46.016-45.968-25.438 0-46.032 20.594-46.032 45.968 0 25.484 20.594 46.032 46.032 46.032 25.392-0.002 46.016-20.548 46.016-46.032zM246.17 171.406c0-25.406-20.624-46-46.016-46-25.438 0-46.032 20.594-46.032 46 0 25.454 20.594 46.032 46.032 46.032 25.392 0 46.016-20.578 46.016-46.032zM246.17 448.406c0-25.406-20.624-46-46.016-46-25.438 0-46.032 20.594-46.032 46 0 25.454 20.594 46.032 46.032 46.032 25.392 0 46.016-20.578 46.016-46.032zM361.020 759.144h504.446v-71.024h-504.446v71.024zM361.020 206.91h503.862v-70.992h-503.862v70.992zM361.020 483.566h504.86v-71.024h-504.86v71.024z" />
<glyph unicode="&#xe945;" glyph-name="twitter" d="M946.4 716c-31.8-14-66.2-23.8-102.2-28.2 36.8 22 64.8 57 78.4 98.6-34.4-20.4-72.4-35.2-113.2-43.2-32.2 34.4-78.6 56-129.6 56-98.2 0-177.8-79.6-177.8-177.8 0-14 1.6-27.6 4.6-40.6-148 7.4-279 78.2-366.8 185.8-15.4-26.2-24.2-57-24.2-89.4 0-61.6 31.6-116.2 79.2-147.8-29.2 0.8-56.4 9-80.4 22.2v-2.2c0-86.2 61.4-158.2 142.6-174.6-14.8-4-30.6-6-46.8-6-11.4 0-22.4 1-33.6 3.2 22.8-70.6 88.4-122 166.2-123.6-61-47.6-137.6-76-221-76-14.2 0-28.4 0.8-42.4 2.4 78.6-50.6 172-80 272.6-80 327 0 506 271 506 506l-0.6 23c35 25.2 65.2 56.4 89 92.2v0z" />
<glyph unicode="&#xe946;" glyph-name="update" d="M224.74 492.058c12.916 146.33 119.93 244.644 266.292 244.644 94.776 0 176.124-41.808 223.29-114.734l-130.562-130.548h323.508v323.472l-117.036-117.022c-33.732 44.086-76.502 78.772-127.132 103.108-52.22 25.098-110.112 37.826-172.066 37.826-99.836 0-192.042-34.584-259.632-97.38-67.384-62.606-108.106-151.126-114.666-249.256l-0.050-0.748h108l0.054 0.638zM799.316 404.578l-0.056-0.636c-12.918-146.332-119.934-244.648-266.292-244.648-94.776 0-176.124 41.808-223.288 114.736l130.564 130.55h-323.512v-323.472l117.038 117.022c33.734-44.086 76.502-78.772 127.132-103.108 52.218-25.1 110.11-37.824 172.064-37.824 99.836 0 192.042 34.584 259.63 97.38 67.384 62.606 108.108 151.126 114.668 249.256l0.048 0.746h-107.996z" />
<glyph unicode="&#xe947;" glyph-name="warning" d="M972.554 112.656l-432.408 748.844c-5.876 10.156-16.704 16.422-28.422 16.422-11.75 0-22.578-6.266-28.454-16.422l-434.764-753.14c-5.906-10.204-5.906-22.688 0-32.876 5.812-10.156 16.672-16.376 28.39-16.376h869.704c0.172 0 0.328 0 0.468 0 18.156 0 32.86 14.688 32.86 32.812 0 7.862-2.782 15.080-7.374 20.736zM565.916 613.86l-14.922-307.36h-77.36l-14.922 307.36h107.204zM512.338 125.672h-0.704c-35.954 0-60.344 26.484-60.344 61.782 0 36.578 25.094 61.672 61.046 61.672 35.922 0 59.626-25.094 60.376-61.672 0.002-35.298-23.78-61.782-60.374-61.782z" />
<glyph unicode="&#xe948;" glyph-name="xing" d="M864.969 831.236c-0.995 0.057-2.001 0.023-3 0.023-53.484 0-106.985-0.068-160.467 0.088-6.103 0.010-9.871-2.267-12.825-7.5-14.801-26.235-29.846-52.337-44.757-78.516-36.356-63.783-72.657-127.574-109.015-191.357-35.191-61.749-70.416-123.498-105.662-185.215-1.833-3.199-1.933-6.089-0.078-9.353 17.678-30.939 35.236-61.917 52.892-92.85 37.358-65.493 74.809-130.945 112.065-196.502 2.925-5.134 6.568-7.291 12.405-7.246 6.707 0.047 13.425 0.090 20.124 0.090 10.062 0.023 20.124 0.023 30.188 0.016 10.062-0.006 20.124-0.016 30.185-0.016 27.001 0 53.989-0.023 80.98 0 8.509 0.023 9.777 2.021 5.687 9.222-13.013 22.868-26.147 45.672-39.158 68.516-41.523 72.897-83.016 145.814-124.639 218.661-2.007 3.533-1.909 6.312 0.023 9.687 34.793 60.848 69.497 121.731 104.233 182.602 39.913 69.97 79.837 139.942 119.773 209.924 11.79 20.668 23.581 41.335 35.359 62.026 2.767 4.878 1.366 7.334-4.311 7.7zM448.215 520.051c-3.922 6.367-7.434 13.001-11.123 19.524-27.445 48.347-54.948 96.662-82.272 145.076-2.456 4.354-5.399 5.943-10.344 5.888-6.39-0.043-12.745-0.078-19.134-0.1-0.014 0-0.029 0-0.043 0 0.014 0 0.029 0 0.043 0-0.014 0-0.029 0-0.043 0-19.098-0.057-38.195 0.010-57.315 0.010-26.167 0-52.337 0.010-78.494-0.023 26.157 0.033 52.326 0.023 78.494 0.023 0 0 0 0 0 0-26.167 0-52.337 0.010-78.494-0.023-6.222 0-7.123-1.522-4.389-7.145 0.367-0.745 0.756-1.487 1.167-2.212 15.956-28.080 31.912-56.138 47.858-84.228 14.723-25.901 29.358-51.847 44.159-77.715 2.056-3.588 1.956-6.367-0.266-10.023-39.16-64.26-78.172-128.631-117.197-192.946-3.035-4.977-6.179-9.908-8.991-14.975-2.222-3.975-1.067-5.827 3.523-6.136 1.647-0.131 3.324-0.043 4.991-0.043 48.992 0 97.985 0.178 146.977-0.178 8.178-0.068 12.823 2.443 17.107 9.558 41.015 68.182 82.395 136.161 123.765 204.134 2.49 4.102 2.523 7.49 0.023 11.534zM656.837 62.915c10.060-0.006 20.12-0.016 30.181-0.016 0.002 0 0.002 0 0.004 0-10.062 0-20.124 0.010-30.185 0.016z" />
<glyph unicode="&#xe949;" glyph-name="youtube" d="M741.073 289.726c0 11.237-9.247 20.423-20.552 20.423h-2.779c-11.289 0-20.5-9.187-20.5-20.423l-0.215-25.281h43.536l0.51 25.281zM577.323 318.616c-11.047 0-20.081-7.422-20.081-16.501v-122.939c0-9.069 9.034-16.48 20.081-16.48 11.080 0 20.124 7.412 20.124 16.48v122.939c0.002 9.079-9.042 16.501-20.124 16.501zM443.415 621.455c0-19.094 0.934-33.419 2.857-42.94 1.911-9.54 5.1-17.717 9.628-24.429 4.473-6.707 10.75-11.758 18.878-15.102 8.1-3.377 17.94-4.983 29.612-4.983 10.457 0 19.712 1.911 27.785 5.833 8.004 3.885 14.629 9.984 19.737 18.119 5.175 8.229 8.532 17 10.068 26.468 1.577 9.427 2.376 24.3 2.376 44.507v55.085c0 15.972-0.829 27.818-2.556 35.668-1.683 7.739-4.839 15.317-9.488 22.68-4.557 7.338-11.125 13.289-19.646 17.873-8.491 4.561-18.643 6.883-30.487 6.883-14.084 0-25.668-3.584-34.724-10.729-9.073-7.1-15.35-16.536-18.831-28.262-3.455-11.768-5.21-28.097-5.21-49.009v-57.661zM483.531 708.553c0 12.323 9.183 22.385 20.355 22.385 11.19 0 20.324-10.062 20.324-22.385v-115.956c0-12.345-9.134-22.401-20.324-22.401-11.172 0-20.355 10.056-20.355 22.401v115.956zM341.778 534.045h48.314l0.061 167.057 57.090 143.118h-52.84l-30.358-106.312-30.786 106.594-52.308 0.002 60.748-143.485zM734.298 489.404h-444.594c-59.498 0-108.128-45.914-108.128-102.019v-233.875c0-56.107 48.63-102.009 108.128-102.009h444.594c59.47 0 108.116 45.9 108.116 102.009v233.873c0 56.107-48.646 102.021-108.116 102.021zM273.385 128.106v247.058l-45.869 0.143v35.881l146.919-0.223v-36.499l-55.114 0.020 0.033-246.378h-45.969zM484.557 128.174l-36.891 0.053 0.084 27.159c-9.91-21.279-49.529-38.4-70.197-23.509-11.1 7.956-10.707 21.897-11.817 33.868-0.606 6.765-0.129 21.676-0.162 41.669l-0.139 130.372h45.697l0.182-132.475c0.023-18.078-0.954-28.602 0.156-32.102 6.547-19.925 23.341-9.099 27.075 1.112 1.219 3.355 0.068 12.876 0.068 31.9l-0.002 131.564h45.947v-209.609zM553.058 148.009l-3.434-17.512-37.747-0.555 0.215 280.99 45.933 0.068-0.203-81.416c42.377 33.767 73.601 8.778 73.65-32.954l0.090-109.507c0.066-53.066-30.247-83.395-78.504-39.113zM659.268 201.486v65.28c0 19.583 1.921 35.015 5.845 46.293 3.893 11.291 10.557 19.687 19.306 25.956 27.808 20.099 82.909 13.867 88.556-25.381 1.792-12.411 2.347-34.099 2.347-55.8v-29.704h-78.893v-50.555c0-10.287 8.481-18.668 18.823-18.668h6.744c10.334 0 18.835 8.38 18.835 18.668v19.212c0.010 1.733 0.061 3.299 0.076 4.665l34.454 0.176c15.735-93.348-116.093-108.694-116.093-0.143zM598.641 556.093c2.359-5.767 6.038-10.433 11.051-13.961 4.909-3.465 11.256-5.21 18.79-5.21 6.636 0 12.503 1.788 17.613 5.482 5.087 3.678 9.388 9.163 12.888 16.49l-0.866-18.035h51.229v217.827h-40.333v-169.538c0-9.183-7.555-16.695-16.812-16.695-9.191 0-16.769 7.512-16.769 16.695v169.538h-42.086v-146.919c0-18.717 0.326-31.201 0.881-37.523 0.606-6.283 2.040-12.313 4.415-18.151z" />
</font>
</defs>
</svg>
